- 
http://www.Speed.Cd      fast  and The Hottest Private Tracker on the net

   signup is open now

Please Seed back to make the speed Faster!!!

------------------nfo--------------------------
-








































          
          
              
              
                    
                    
                    
                    

Harry.Potter.And.The.Deathly.Hallows.Part.2.2011.BRRip.XviD.AC3-SiC

Poster:
[img]http://img521.imageshack.us/img521/8133/mv5bmty2mtk3mdq1n15bml5.jpg[/img]

IMDB Link: 
http://www.imdb.com/title/tt1201607/

Description:
Harry, Ron and Hermione search for Voldemort's remaining Horcruxes in their effort to destroy the Dark Lord. 

MediaInfo:
General
Complete name                    : Harry.Potter.And.The.Deathly.Hallows.Part.2.2011.BRRip.XviD.AC3-SiC.avi
Format                           : AVI
Format/Info                      : Audio Video Interleave
File size                        : 1.37 GiB
Duration                         : 2h 10mn
Overall bit rate                 : 1 503 Kbps

Video
ID                               : 0
Format                           : MPEG-4 Visual
Format profile                   : Advanced Simple@L5
Format settings, BVOP            : Yes
Format settings, QPel            : No
Format settings, GMC             : No warppoints
Format settings, Matrix          : Default (MPEG)
Muxing mode                      : Packed bitstream
Codec ID                         : XVID
Codec ID/Hint                    : XviD
Duration                         : 2h 10mn
Bit rate                         : 1 111 Kbps
Width                            : 720 pixels
Height                           : 304 pixels
Display aspect ratio             : 2.35:1
Frame rate                       : 23.976 fps
Color space                      : YUV
Chroma subsampling               : 4:2:0
Bit depth                        : 8 bits
Scan type                        : Progressive
Bits/(Pixel*Frame)               : 0.212
Stream size                      : 1.01 GiB (74%)
Writing library                  : XviD 64

Audio
ID                               : 1
Format                           : AC-3
Format/Info                      : Audio Coding 3
Mode extension                   : CM (complete main)
Codec ID                         : 2000
Duration                         : 2h 10mn
Bit rate mode                    : Constant
Bit rate                         : 384 Kbps
Channel(s)                       : 6 channels
Channel positions                : Front: L C R, Side: L R, LFE
Sampling rate                    : 48.0 KHz
Bit depth                        : 16 bits
Stream size                      : 358 MiB (26%)
Alignment                        : Aligned on interleaves
Interleave, duration             : 64 ms (1.53 video frames)
Interleave, preload duration     : 192 ms
Title                            : mhd-hp7p2-720p - [2] English


Screenshots:
[img]http://img694.imageshack.us/img694/5830/snap1w.png[/img]
[img]http://img696.imageshack.us/img696/8762/snap2v.png[/img]
[img]http://img269.imageshack.us/img269/5702/snap3yh.png[/img]
[img]http://img442.imageshack.us/img442/5503/snap4s.png[/img]
[img]http://img710.imageshack.us/img710/8163/snap5n.png[/img]


Note : did my thing. turned out nice, enjoy. 

Source: 720p MHD

Enjoy!

Respects to CaptainHomey, Cyanide, CM8, Rx, THC, ELEKTRI4KA, 
Killerhz, PA, YeFsTe, BoxSlots, MrRep and everyone in the struggle...